<?xml version="1.0" encoding="utf-8"?>
<!-- Generator: Adobe Illustrator 27.2.0, SVG Export Plug-In . SVG Version: 6.00 Build 0)  -->
<svg version="1.1" id="Layer_1" xmlns="http://www.w3.org/2000/svg" xmlns:xlink="http://www.w3.org/1999/xlink" x="0px" y="0px"
	 viewBox="0 0 868 82.6" style="enable-background:new 0 0 868 82.6;" xml:space="preserve">
<style type="text/css">
	.st0{fill:#F15A22;}
	.st1{fill:#414042;}
	.st2{fill:#FFFFFF;}
</style>
<path class="st0" d="M64.1,52.6L91.9,68l2.5,1.1c-1.3-0.1-1.7-0.2-2.8-0.2H64v9.8h54V44.4h-9.8v20.9L70.7,44.2h-6.8v8.4H64.1z"/>
<path class="st1" d="M0.1,70.5L27.9,55l2.5-1.1c-1.3,0.1-1.7,0.2-2.8,0.2H0v-9.8h54.1v34.3h-9.8V57.7L0,82.6v-3.8L0.1,70.5z"/>
<path class="st0" d="M64.1,26.2l27.8-15.4l2.5-1.1c-1.3,0.1-1.7,0.2-2.8,0.2H64V0h54v34.4h-9.8V13.5L70.7,34.6h-6.8v-8.4
	C63.9,26.2,64.1,26.2,64.1,26.2z"/>
<path class="st0" d="M54.2,26.2L26.4,10.7l-2.5-1.1c1.3,0.1,1.7,0.2,2.8,0.2h27.6V0h-54v34.4h9.8V13.5l37.5,21.1h6.8v-8.4
	C54.4,26.2,54.2,26.2,54.2,26.2z"/>
<path class="st1" d="M157.9,61.5c-3.6,0.1-6.9-1.5-9-4.5c-2.2-3-3.3-7.1-3.3-12.3s1.1-9.4,3.3-12.5c2.1-2.9,5.6-4.6,9.2-4.5
	c3.7-0.2,7.3,1.6,9.4,4.8h0.3c-0.4-2.1-0.6-4.3-0.7-6.5V15.6h8.9v45.3h-6.8l-1.7-4.2h-0.4C165.2,59.9,162.1,61.5,157.9,61.5z
	 M161.1,54.4c1.9,0.2,3.7-0.6,5-2c1.1-1.3,1.6-3.6,1.7-6.7v-1c0-3.5-0.5-6-1.6-7.5s-2.8-2.3-5.3-2.3c-1.9-0.1-3.6,0.9-4.6,2.5
	c-1.1,1.7-1.6,4.1-1.6,7.3s0.6,5.6,1.7,7.2C157.4,53.5,159.2,54.5,161.1,54.4z"/>
<path class="st1" d="M192.4,44.3l-10.5-15.9H192l6.3,10.4l6.4-10.4h10.1l-10.6,15.9l11.1,16.6h-10.1l-6.8-11.2l-6.8,11.2h-10.1
	L192.4,44.3z"/>
<path class="st1" d="M230.1,60.9h-8.9V18.4h24.4v7.4h-15.5v11h14.4v7.4h-14.4V60.9z"/>
<path class="st1" d="M268.3,61.5c-5.2,0-9.3-1.4-12.3-4.3c-3-2.9-4.4-7-4.4-12.3c0-5.5,1.4-9.7,4.1-12.6c2.7-3,6.5-4.5,11.3-4.5
	c4.6,0,8.2,1.3,10.7,3.9s3.8,6.2,3.9,10.9v4.3h-21c0,2.2,0.8,4.3,2.2,5.9c1.6,1.5,3.7,2.3,5.9,2.1c1.9,0,3.7-0.2,5.6-0.6
	c1.9-0.5,3.7-1.1,5.5-2v6.9c-1.6,0.8-3.3,1.4-5,1.7C272.6,61.3,270.5,61.5,268.3,61.5z M267.1,34.1c-1.7-0.1-3.3,0.6-4.4,1.8
	c-1.2,1.4-1.8,3.2-1.8,5.1h12.5c0.1-1.8-0.5-3.7-1.7-5.1C270.4,34.6,268.8,34,267.1,34.1z"/>
<path class="st1" d="M303.9,61.5c-5.2,0-9.3-1.4-12.3-4.3c-3-2.9-4.4-7-4.4-12.3c0-5.5,1.4-9.7,4.1-12.6c2.7-3,6.5-4.5,11.3-4.5
	c4.6,0,8.2,1.3,10.7,3.9s3.9,6.2,3.9,10.9v4.3h-21c0,2.2,0.8,4.3,2.2,5.9c1.6,1.5,3.7,2.3,5.9,2.1c1.9,0,3.7-0.2,5.6-0.6
	c1.9-0.5,3.7-1.1,5.5-2v6.9c-1.6,0.8-3.3,1.4-5,1.7C308.2,61.3,306.1,61.5,303.9,61.5z M302.6,34.1c-1.7-0.1-3.3,0.6-4.4,1.8
	c-1.2,1.4-1.8,3.2-1.8,5.1h12.5c0.1-1.8-0.5-3.7-1.7-5.1C305.9,34.6,304.3,34,302.6,34.1z"/>
<path class="st1" d="M335,61.5c-3.6,0.1-6.9-1.5-9-4.5c-2.2-3-3.3-7.1-3.3-12.3s1.1-9.4,3.3-12.5c2.1-2.9,5.6-4.6,9.2-4.5
	c3.7-0.2,7.3,1.6,9.4,4.8h0.3c-0.4-2.1-0.6-4.3-0.7-6.5V15.6h8.9v45.3h-6.8l-1.7-4.2h-0.4C342.2,59.9,339.1,61.5,335,61.5z
	 M338.2,54.4c1.9,0.2,3.7-0.6,5-2c1-1.3,1.6-3.6,1.7-6.7v-1c0-3.5-0.5-6-1.6-7.5s-2.8-2.3-5.2-2.3c-1.9-0.1-3.6,0.9-4.6,2.5
	c-1.1,1.7-1.6,4.1-1.6,7.3s0.6,5.6,1.7,7.2C334.5,53.5,336.3,54.5,338.2,54.4z"/>
<path class="st1" d="M395.5,37h16.9v22.1c-2.5,0.8-5.1,1.5-7.7,1.9c-2.5,0.4-4.9,0.5-7.4,0.5c-6.4,0-11.3-1.9-14.7-5.7
	c-3.4-3.8-5.1-9.2-5.1-16.2c0-6.9,2-12.2,5.9-16.1s9.4-5.8,16.3-5.8c4.3,0,8.6,0.9,12.6,2.6l-3,7.2c-3-1.5-6.3-2.3-9.7-2.3
	c-3.6-0.1-7,1.3-9.4,3.9c-2.3,2.6-3.5,6.1-3.5,10.6c0,4.6,0.9,8.1,2.8,10.6c1.9,2.4,4.6,3.7,8.2,3.7c1.9,0,3.8-0.2,5.7-0.6v-8.9
	h-8.1V37H395.5z"/>
<path class="st1" d="M440.3,27.8c1,0,2,0.1,3,0.3l-0.7,8.3c-0.9-0.2-1.7-0.3-2.6-0.3c-2.4-0.2-4.8,0.6-6.6,2.2
	c-1.6,1.6-2.5,3.8-2.4,6.1V61h-8.8V28.4h6.7l1.3,5.5h0.4c1-1.8,2.4-3.3,4.1-4.4C436.4,28.3,438.3,27.7,440.3,27.8z"/>
<path class="st1" d="M470.2,60.9l-1.7-4.4h-0.2c-1.2,1.6-2.8,3-4.6,3.9c-2,0.8-4.1,1.2-6.2,1.1c-2.7,0.2-5.4-0.8-7.4-2.7
	c-1.8-1.8-2.7-4.3-2.7-7.6c0-3.5,1.2-6,3.6-7.6s6.1-2.5,10.9-2.7l5.6-0.2v-1.4c0-3.3-1.7-5-5.1-5c-3.2,0.1-6.3,0.9-9.2,2.4l-2.9-6
	c3.9-2,8.1-3,12.5-2.9c4.4,0,7.7,1,10,2.9c2.3,1.9,3.5,4.8,3.5,8.7v21.7h-6.1V60.9z M467.6,45.8l-3.4,0.1c-2-0.1-4,0.4-5.8,1.4
	c-1.3,0.9-2,2.4-1.9,3.9c0,2.5,1.4,3.8,4.3,3.8c1.8,0.1,3.6-0.5,4.9-1.8c1.3-1.2,1.9-3,1.8-4.7L467.6,45.8z"/>
<path class="st1" d="M506.6,60.9l-1.7-4.4h-0.2c-1.2,1.6-2.8,3-4.6,3.9c-2,0.8-4.1,1.2-6.2,1.1c-2.7,0.2-5.4-0.8-7.4-2.7
	c-1.8-1.8-2.7-4.3-2.7-7.6c0-3.5,1.2-6,3.6-7.6s6.1-2.5,10.9-2.7l5.6-0.2v-1.4c0-3.3-1.7-5-5.1-5c-3.2,0.1-6.3,0.9-9.2,2.4l-2.9-6
	c3.8-2,8.1-3,12.5-2.9c4.4,0,7.7,1,10,2.9c2.3,1.9,3.5,4.8,3.5,8.7v21.7h-6.1V60.9z M504,45.8l-3.4,0.1c-2-0.1-4,0.4-5.8,1.4
	c-1.3,0.9-2,2.4-1.9,3.9c0,2.5,1.4,3.8,4.3,3.8c1.8,0.1,3.6-0.5,4.9-1.8c1.3-1.2,1.9-3,1.9-4.7V45.8z"/>
<path class="st1" d="M531.2,60.9h-8.9V15.6h8.9V60.9z"/>
<g>
	<path class="st1" d="M571.5,24.6c-3.4,0-6,1.3-7.8,3.8s-2.8,6-2.8,10.6c0,9.4,3.5,14.1,10.6,14.1c3,0,6.5-0.7,10.7-2.2v7.5
		c-3.5,1.4-7.3,2.2-11.6,2.2c-6.1,0-10.8-1.9-14.1-5.6c-3.2-3.7-4.9-9.1-4.9-16c0-4.4,0.8-8.2,2.4-11.5c1.6-3.3,3.9-5.8,6.9-7.6
		c3-1.8,6.5-2.6,10.5-2.6c4.1,0,8.2,1,12.3,3l-2.9,7.3c-1.6-0.7-3.2-1.4-4.8-2C574.6,24.9,573,24.6,571.5,24.6z"/>
	<path class="st1" d="M610,17.8l-15.7,42.1h-8L602,17.8H610z"/>
	<path class="st1" d="M633.5,24.6c-3.4,0-6,1.3-7.8,3.8s-2.8,6-2.8,10.6c0,9.4,3.5,14.1,10.6,14.1c3,0,6.5-0.7,10.7-2.2v7.5
		c-3.5,1.4-7.3,2.2-11.6,2.2c-6.1,0-10.8-1.9-14.1-5.6c-3.2-3.7-4.9-9.1-4.9-16c0-4.4,0.8-8.2,2.4-11.5c1.6-3.3,3.9-5.8,6.9-7.6
		c3-1.8,6.5-2.6,10.5-2.6c4.1,0,8.2,1,12.3,3l-2.9,7.3c-1.6-0.7-3.2-1.4-4.8-2C636.6,24.9,635,24.6,633.5,24.6z"/>
	<path class="st1" d="M661.5,42.3h-11.1V36h11.1V24.7h6.3V36H679v6.3h-11.1v11.1h-6.3V42.3z"/>
	<path class="st1" d="M695.2,42.3h-11.1V36h11.1V24.7h6.3V36h11.1v6.3h-11.1v11.1h-6.3V42.3z"/>
	<path class="st1" d="M761.6,59.9l-3.1-10h-15.4l-3.1,10h-9.6l14.9-42.3h10.9l14.9,42.3H761.6z M756.4,42.4
		c-2.8-9.1-4.4-14.2-4.8-15.4c-0.4-1.2-0.6-2.1-0.8-2.8c-0.6,2.5-2.4,8.5-5.4,18.2H756.4z"/>
	<path class="st1" d="M805.6,30.9c0,4.5-1.4,8-4.2,10.4c-2.8,2.4-6.9,3.6-12.1,3.6h-3.8v15h-8.9V17.8H790c5.1,0,9,1.1,11.7,3.3
		S805.6,26.6,805.6,30.9z M785.5,37.6h2.9c2.7,0,4.8-0.5,6.2-1.6c1.4-1.1,2-2.7,2-4.7c0-2.1-0.6-3.6-1.7-4.6c-1.1-1-2.9-1.5-5.4-1.5
		h-4.1V37.6z"/>
	<path class="st1" d="M813.6,59.9V17.8h8.9v42.1H813.6z"/>
</g>
</svg>
