<svg id="Layer_1" data-name="Layer 1" xmlns="http://www.w3.org/2000/svg" viewBox="0 0 796.28 82.6"><defs><style>.cls-1{fill:#f15a22;}.cls-2{fill:#414042;}</style></defs><g id="Layer_1-2" data-name="Layer 1"><path class="cls-1" d="M70.9,58.3,98.7,73.7l2.5,1.1c-1.3-.1-1.7-.2-2.8-.2H70.8v9.8h54V50.1H115V71L77.5,49.9H70.7v8.4Z" transform="translate(-6.8 -5.7)"/><path class="cls-2" d="M6.9,76.2,34.7,60.7l2.5-1.1c-1.3.1-1.7.2-2.8.2H6.8V50H60.9V84.3H51.1V63.4L6.8,88.3V84.5l.1-8.3Z" transform="translate(-6.8 -5.7)"/><path class="cls-1" d="M70.9,31.9,98.7,16.5l2.5-1.1c-1.3.1-1.7.2-2.8.2H70.8V5.7h54V40.1H115V19.2L77.5,40.3H70.7V31.9Z" transform="translate(-6.8 -5.7)"/><path class="cls-1" d="M61,31.9,33.2,16.4l-2.5-1.1c1.3.1,1.7.2,2.8.2H61.1V5.7H7.1V40.1h9.8V19.2L54.4,40.3h6.8V31.9Z" transform="translate(-6.8 -5.7)"/></g><path class="cls-2" d="M164.75,67.18a10.55,10.55,0,0,1-9-4.45q-3.27-4.45-3.27-12.34t3.33-12.47A10.82,10.82,0,0,1,165,33.45a10.6,10.6,0,0,1,9.37,4.78h.29a36,36,0,0,1-.67-6.49V21.32h8.91V66.6h-6.81l-1.72-4.22H174Q170.94,67.18,164.75,67.18Zm3.11-7.07a6,6,0,0,0,5-2q1.59-2,1.73-6.72v-1c0-3.49-.54-6-1.61-7.51s-2.83-2.27-5.26-2.27a5.22,5.22,0,0,0-4.61,2.52q-1.64,2.52-1.64,7.32t1.66,7.2A5.4,5.4,0,0,0,167.86,60.11Z" transform="translate(-6.8 -5.7)"/><path class="cls-2" d="M199.18,50,188.71,34.06h10.06l6.32,10.36,6.37-10.36h10.07L210.94,50,222,66.6h-10.1l-6.84-11.15L198.22,66.6H188.15Z" transform="translate(-6.8 -5.7)"/><path class="cls-2" d="M236.91,66.6H228V24.05h24.39v7.4H236.91v11h14.43v7.36H236.91Z" transform="translate(-6.8 -5.7)"/><path class="cls-2" d="M275.13,67.18q-7.86,0-12.29-4.33t-4.42-12.29q0-8.18,4.09-12.64t11.31-4.47q6.89,0,10.73,3.93t3.85,10.86v4.3h-21a8.57,8.57,0,0,0,2.24,5.91,7.88,7.88,0,0,0,5.88,2.13,24.29,24.29,0,0,0,5.56-.62,26.76,26.76,0,0,0,5.47-2v6.87a20.25,20.25,0,0,1-5,1.73A31.11,31.11,0,0,1,275.13,67.18Zm-1.26-27.41a5.61,5.61,0,0,0-4.42,1.79,8.21,8.21,0,0,0-1.83,5.08h12.45a7.42,7.42,0,0,0-1.71-5.08A5.82,5.82,0,0,0,273.87,39.77Z" transform="translate(-6.8 -5.7)"/><path class="cls-2" d="M310.7,67.18q-7.86,0-12.29-4.33T294,50.56q0-8.18,4.09-12.64t11.31-4.47q6.89,0,10.73,3.93T324,48.24v4.3H303a8.57,8.57,0,0,0,2.24,5.91,7.88,7.88,0,0,0,5.88,2.13,24.23,24.23,0,0,0,5.56-.62,26.76,26.76,0,0,0,5.47-2v6.87a20.32,20.32,0,0,1-5,1.73A31.28,31.28,0,0,1,310.7,67.18Zm-1.26-27.41A5.61,5.61,0,0,0,305,41.56a8.21,8.21,0,0,0-1.83,5.08h12.45a7.42,7.42,0,0,0-1.71-5.08A5.8,5.8,0,0,0,309.44,39.77Z" transform="translate(-6.8 -5.7)"/><path class="cls-2" d="M341.84,67.18a10.58,10.58,0,0,1-9-4.45q-3.27-4.45-3.27-12.34t3.33-12.47a10.82,10.82,0,0,1,9.19-4.47,10.61,10.61,0,0,1,9.37,4.78h.29a36,36,0,0,1-.67-6.49V21.32H360V66.6h-6.81l-1.71-4.22h-.38Q348,67.18,341.84,67.18ZM345,60.11a6,6,0,0,0,5-2q1.57-2,1.73-6.72v-1c0-3.49-.54-6-1.62-7.51s-2.82-2.27-5.25-2.27a5.2,5.2,0,0,0-4.61,2.52q-1.65,2.52-1.65,7.32c0,3.2.56,5.6,1.66,7.2A5.43,5.43,0,0,0,345,60.11Z" transform="translate(-6.8 -5.7)"/><path class="cls-2" d="M402.3,42.71h16.88V64.77a47.83,47.83,0,0,1-7.72,1.87,50.3,50.3,0,0,1-7.41.54q-9.63,0-14.71-5.66t-5.08-16.25q0-10.31,5.89-16.07t16.34-5.76a31.69,31.69,0,0,1,12.63,2.62l-3,7.22A21.47,21.47,0,0,0,406.44,31a12,12,0,0,0-9.38,3.93q-3.51,3.93-3.52,10.56,0,6.93,2.84,10.58c1.89,2.44,4.64,3.65,8.25,3.65a29,29,0,0,0,5.73-.58V50.22H402.3Z" transform="translate(-6.8 -5.7)"/><path class="cls-2" d="M447.13,33.45a14.73,14.73,0,0,1,3,.26L449.46,42a10,10,0,0,0-2.62-.29,9.37,9.37,0,0,0-6.62,2.18A7.85,7.85,0,0,0,437.84,50V66.6H429V34.06h6.72L437,39.54h.44a12.13,12.13,0,0,1,4.09-4.41A10,10,0,0,1,447.13,33.45Z" transform="translate(-6.8 -5.7)"/><path class="cls-2" d="M477.05,66.6l-1.71-4.42h-.24a13.11,13.11,0,0,1-4.61,3.91,14.85,14.85,0,0,1-6.18,1.09,10,10,0,0,1-7.38-2.68c-1.8-1.78-2.69-4.32-2.69-7.62q0-5.18,3.62-7.64t10.93-2.72l5.64-.18V44.92c0-3.3-1.68-5-5.06-5a23.12,23.12,0,0,0-9.17,2.36l-2.94-6a26.48,26.48,0,0,1,12.46-2.94q6.54,0,10,2.86t3.49,8.67V66.6Zm-2.62-15.07-3.43.11a11,11,0,0,0-5.76,1.4,4.38,4.38,0,0,0-1.89,3.9q0,3.75,4.3,3.75a6.86,6.86,0,0,0,4.94-1.77,6.26,6.26,0,0,0,1.84-4.72Z" transform="translate(-6.8 -5.7)"/><path class="cls-2" d="M513.41,66.6l-1.72-4.42h-.23a13.2,13.2,0,0,1-4.61,3.91,14.93,14.93,0,0,1-6.19,1.09,10,10,0,0,1-7.38-2.68q-2.68-2.67-2.69-7.62,0-5.18,3.63-7.64t10.92-2.72l5.65-.18V44.92q0-5-5.06-5a23.12,23.12,0,0,0-9.17,2.36l-2.94-6a26.44,26.44,0,0,1,12.45-2.94q6.56,0,10,2.86t3.5,8.67V66.6Zm-2.62-15.07-3.43.11a11,11,0,0,0-5.77,1.4,4.38,4.38,0,0,0-1.89,3.9q0,3.75,4.31,3.75a6.83,6.83,0,0,0,4.93-1.77,6.27,6.27,0,0,0,1.85-4.72Z" transform="translate(-6.8 -5.7)"/><path class="cls-2" d="M538,66.6H529.1V21.32H538Z" transform="translate(-6.8 -5.7)"/><path class="cls-2" d="M562.24,62.44a4.87,4.87,0,0,1,1.31-3.7,5.32,5.32,0,0,1,3.81-1.25,5.19,5.19,0,0,1,3.74,1.28,4.88,4.88,0,0,1,1.32,3.67,4.83,4.83,0,0,1-1.34,3.62,5.07,5.07,0,0,1-3.72,1.33,5.22,5.22,0,0,1-3.78-1.3A4.81,4.81,0,0,1,562.24,62.44Z" transform="translate(-6.8 -5.7)"/><path class="cls-2" d="M619.29,66.6H607.82L589.31,34.41h-.26q.56,8.54.55,12.17v20h-8.06V24.05h11.38L611.4,55.92h.2q-.44-8.3-.43-11.73V24.05h8.12Z" transform="translate(-6.8 -5.7)"/><path class="cls-2" d="M654.86,66.6H630.35V24.05h24.51v7.4H639.37v9.34h14.41v7.39H639.37v11h15.49Z" transform="translate(-6.8 -5.7)"/><path class="cls-2" d="M680.5,66.6h-9v-35H659.93V24.05h32.12v7.51H680.5Z" transform="translate(-6.8 -5.7)"/><path class="cls-2" d="M740.85,66.6l-3.09-10.13H722.25L719.17,66.6h-9.72l15-42.72h11L750.57,66.6Zm-5.24-17.69q-4.27-13.77-4.82-15.57c-.36-1.21-.62-2.16-.77-2.86q-1,3.73-5.5,18.43Z" transform="translate(-6.8 -5.7)"/><path class="cls-2" d="M785.67,37.32q0,6.87-4.29,10.51t-12.21,3.64H765.3V66.6h-9V24.05h13.59q7.74,0,11.77,3.33T785.67,37.32ZM765.3,44.08h3q4.15,0,6.23-1.65a5.78,5.78,0,0,0,2.06-4.79A5.91,5.91,0,0,0,774.83,33q-1.73-1.52-5.43-1.51h-4.1Z" transform="translate(-6.8 -5.7)"/><path class="cls-2" d="M794.06,66.6V24.05h9V66.6Z" transform="translate(-6.8 -5.7)"/></svg>